<?xml version="1.0" encoding="UTF-8" standalone="no"?>
<!DOCTYPE svg PUBLIC "-//W3C//DTD SVG 1.1//EN"
 "http://www.w3.org/Graphics/SVG/1.1/DTD/svg11.dtd">
<!-- Generated by graphviz version 2.43.0 (0)
 -->
<!-- Title: dependency&#45;cruiser output Pages: 1 -->
<svg width="249pt" height="108pt"
 viewBox="0.00 0.00 248.52 108.00" xmlns="http://www.w3.org/2000/svg" xmlns:xlink="http://www.w3.org/1999/xlink">
<g id="graph0" class="graph" transform="scale(1 1) rotate(0) translate(4 104)">
<title>dependency&#45;cruiser output</title>
<polygon fill="white" stroke="transparent" points="-4,4 -4,-104 244.52,-104 244.52,4 -4,4"/>
<g id="clust1" class="cluster">
<title>cluster_src</title>
<path fill="#ffffff" stroke="black" stroke-width="2" d="M20,-8C20,-8 220.52,-8 220.52,-8 226.52,-8 232.52,-14 232.52,-20 232.52,-20 232.52,-80 232.52,-80 232.52,-86 226.52,-92 220.52,-92 220.52,-92 20,-92 20,-92 14,-92 8,-86 8,-80 8,-80 8,-20 8,-20 8,-14 14,-8 20,-8"/>
<text text-anchor="middle" x="120.26" y="-80.8" font-family="Helvetica,sans-Serif" font-weight="bold" font-size="9.00">src</text>
</g>
<g id="clust2" class="cluster">
<title>cluster_src/components</title>
<path fill="#ffffff" stroke="black" stroke-width="2" d="M166.52,-16C166.52,-16 212.52,-16 212.52,-16 218.52,-16 224.52,-22 224.52,-28 224.52,-28 224.52,-55 224.52,-55 224.52,-61 218.52,-67 212.52,-67 212.52,-67 166.52,-67 166.52,-67 160.52,-67 154.52,-61 154.52,-55 154.52,-55 154.52,-28 154.52,-28 154.52,-22 160.52,-16 166.52,-16"/>
<text text-anchor="middle" x="189.52" y="-55.8" font-family="Helvetica,sans-Serif" font-weight="bold" font-size="9.00">components</text>
</g>
<!-- src/components/App.js -->
<g id="node1" class="node">
<title>src/components/App.js</title>
<g id="a_node1"><a xlink:href="src/components/App.js" xlink:title="App.js">
<path fill="#ffffcc" stroke="black" d="M210.86,-41.5C210.86,-41.5 168.19,-41.5 168.19,-41.5 165.36,-41.5 162.52,-38.67 162.52,-35.83 162.52,-35.83 162.52,-30.17 162.52,-30.17 162.52,-27.33 165.36,-24.5 168.19,-24.5 168.19,-24.5 210.86,-24.5 210.86,-24.5 213.69,-24.5 216.52,-27.33 216.52,-30.17 216.52,-30.17 216.52,-35.83 216.52,-35.83 216.52,-38.67 213.69,-41.5 210.86,-41.5"/>
<text text-anchor="middle" x="189.52" y="-30.3" font-family="Helvetica,sans-Serif" font-size="9.00">App.js</text>
</a>
</g>
</g>
<!-- src/index.js -->
<g id="node2" class="node">
<title>src/index.js</title>
<g id="a_node2"><a xlink:href="src/index.js" xlink:title="index.js">
<path fill="#ffffcc" stroke="black" d="M140.86,-41.5C140.86,-41.5 98.19,-41.5 98.19,-41.5 95.36,-41.5 92.52,-38.67 92.52,-35.83 92.52,-35.83 92.52,-30.17 92.52,-30.17 92.52,-27.33 95.36,-24.5 98.19,-24.5 98.19,-24.5 140.86,-24.5 140.86,-24.5 143.69,-24.5 146.52,-27.33 146.52,-30.17 146.52,-30.17 146.52,-35.83 146.52,-35.83 146.52,-38.67 143.69,-41.5 140.86,-41.5"/>
<text text-anchor="middle" x="119.52" y="-30.3" font-family="Helvetica,sans-Serif" font-size="9.00">index.js</text>
</a>
</g>
</g>
<!-- src/index.js&#45;&gt;src/components/App.js -->
<g id="edge1" class="edge">
<title>src/index.js&#45;&gt;src/components/App.js</title>
<path fill="none" stroke="#000000" stroke-width="2" stroke-opacity="0.200000" d="M146.62,-33C149.64,-33 152.76,-33 155.85,-33"/>
<polygon fill="#000000" fill-opacity="0.200000" stroke="#000000" stroke-width="2" stroke-opacity="0.200000" points="156.16,-35.1 162.16,-33 156.16,-30.9 156.16,-35.1"/>
</g>
<!-- src/index.test.js -->
<g id="node3" class="node">
<title>src/index.test.js</title>
<g id="a_node3"><a xlink:href="src/index.test.js" xlink:title="index.test.js">
<path fill="#ffffcc" stroke="black" d="M73.62,-41.5C73.62,-41.5 21.9,-41.5 21.9,-41.5 19.07,-41.5 16.24,-38.67 16.24,-35.83 16.24,-35.83 16.24,-30.17 16.24,-30.17 16.24,-27.33 19.07,-24.5 21.9,-24.5 21.9,-24.5 73.62,-24.5 73.62,-24.5 76.45,-24.5 79.29,-27.33 79.29,-30.17 79.29,-30.17 79.29,-35.83 79.29,-35.83 79.29,-38.67 76.45,-41.5 73.62,-41.5"/>
<text text-anchor="middle" x="47.76" y="-30.3" font-family="Helvetica,sans-Serif" font-size="9.00">index.test.js</text>
</a>
</g>
</g>
<!-- src/index.test.js&#45;&gt;src/index.js -->
<g id="edge2" class="edge">
<title>src/index.test.js&#45;&gt;src/index.js</title>
<path fill="none" stroke="#000000" stroke-width="2" stroke-opacity="0.200000" d="M79.56,-33C81.68,-33 83.82,-33 85.94,-33"/>
<polygon fill="#000000" fill-opacity="0.200000" stroke="#000000" stroke-width="2" stroke-opacity="0.200000" points="86.25,-35.1 92.25,-33 86.25,-30.9 86.25,-35.1"/>
</g>
</g>
</svg>
